<svg xmlns="http://www.w3.org/2000/svg" xmlns:xlink="http://www.w3.org/1999/xlink" width="123.062" height="30.08" viewBox="0 0 123.062 30.08">
  <defs>
    <linearGradient id="linear-gradient" x1="0.5" y1="0.997" x2="0.5" y2="-0.221" gradientUnits="objectBoundingBox">
      <stop offset="0" stop-color="#f6e200"/>
      <stop offset="1" stop-color="#8cae21"/>
    </linearGradient>
    <linearGradient id="linear-gradient-2" x1="0.972" y1="0.334" x2="-0.713" y2="0.927" gradientUnits="objectBoundingBox">
      <stop offset="0" stop-color="#59c1f0"/>
      <stop offset="1" stop-color="#0096d7"/>
    </linearGradient>
    <linearGradient id="linear-gradient-3" x1="0.03" y1="0.348" x2="1.378" y2="0.784" gradientUnits="objectBoundingBox">
      <stop offset="0" stop-color="#ffad2d"/>
      <stop offset="1" stop-color="#ee5014"/>
    </linearGradient>
  </defs>
  <g id="f_logo" transform="translate(-7 -3.55)" style="isolation: isolate">
    <g id="그룹_1" data-name="그룹 1" transform="translate(7 3.55)">
      <path id="패스_1" data-name="패스 1" d="M200.13,36.178l-12.757,7.34,12.759,7.433,12.757-7.433Z" transform="translate(-187.133 -35.898)" fill="url(#linear-gradient)"/>
      <path id="패스_2" data-name="패스 2" d="M187.375,51.382l0,14.765,12.759,7.414V58.815Z" transform="translate(-187.133 -43.763)" fill="url(#linear-gradient-2)"/>
      <path id="패스_3" data-name="패스 3" d="M226.408,51.208l-12.757,7.434-.048.083V73.471l.144.084L226.5,66.141l.049-.084V51.292Z" transform="translate(-200.7 -43.673)" fill="url(#linear-gradient-3)"/>
      <path id="패스_4" data-name="패스 4" d="M212.872,43.077l-13-7.478-13,7.478,0,0v0h0V58.122l13,7.556h0l13-7.556V43.075Zm-13.35,21.705-12.05-7V43.828l12.05,7.023Zm-11.7-21.564,12.051-6.933,12.054,6.933L199.875,50.24Zm24.457,14.559-12.051,7V50.852l12.051-7.021Z" transform="translate(-186.875 -35.599)" fill="#fff"/>
    </g>
    <path id="패스_5" data-name="패스 5" d="M265.558,62.9a6.71,6.71,0,0,1-2.5,4.309l1.377,1.669-2.058,1.32-1.525-1.844a8.716,8.716,0,0,1-2.761.4c-4.006,0-6-2.217-5.355-5.854l1.136-6.377c.648-3.637,3.434-5.854,7.439-5.854,4.035,0,6.032,2.217,5.383,5.854Zm-4.174,2.292A4.507,4.507,0,0,0,262.42,62.9l1.136-6.377c.391-2.192-.5-3.388-2.684-3.388a3.657,3.657,0,0,0-3.861,3.388L255.875,62.9c-.391,2.192.5,3.388,2.654,3.388a4.845,4.845,0,0,0,.6-.025l-1.156-1.395,2.032-1.346Z" transform="translate(-214.106 -41.839)" fill="#828282"/>
    <path id="패스_6" data-name="패스 6" d="M289.279,58.574,286.94,71.7h-2.062l-.037-1.469a5.506,5.506,0,0,1-4.235,1.793c-2.719,0-4.135-1.62-3.5-5.206l1.469-8.245h2.9L280.031,66.7c-.382,2.142.145,3.039,1.671,3.039a3.269,3.269,0,0,0,3.231-3.039l1.447-8.121Z" transform="translate(-224.189 -45.116)" fill="#828282"/>
    <path id="패스_7" data-name="패스 7" d="M309.747,59.812l-.644,3.612a5.839,5.839,0,0,1-5.931,5.107,4.213,4.213,0,0,1-3.291-1.495l-.422,1.2h-2.092L300.579,50.2h2.839l-1,5.63a5.616,5.616,0,0,1,3.206-1.046C308.669,54.78,310.31,56.648,309.747,59.812Zm-2.96,0c.337-1.893-.378-2.74-2.052-2.74a3.022,3.022,0,0,0-3.029,2.74l-.648,3.637c-.337,1.894.549,2.79,2.044,2.79,1.613,0,2.7-.872,3.041-2.815Z" transform="translate(-232.642 -41.645)" fill="#828282"/>
    <path id="패스_8" data-name="패스 8" d="M330.276,67.363c-.8,2.79-3.083,4.384-6.431,4.384-3.287,0-5.031-1.794-4.471-4.932l.7-3.911c.555-3.113,2.962-4.883,6.28-4.883,3.408,0,5.215,1.769,4.659,4.883l-.518,2.915h-8.041l-.177,1c-.319,1.794.461,2.616,2.046,2.616a2.76,2.76,0,0,0,3.029-2.067Zm-7.3-4.484-.2,1.121h5.171l.2-1.121c.32-1.794-.495-2.591-2.169-2.591A2.807,2.807,0,0,0,322.974,62.879Z" transform="translate(-241.716 -44.887)" fill="#828282"/>
    <path id="패스_9" data-name="패스 9" d="M338.758,67.437h2.869c-.182,1.2.52,2.118,2.343,2.118,1.524,0,2.5-.623,2.684-1.644.471-2.641-7.431-1.743-6.632-6.227.4-2.242,2.655-3.662,5.734-3.662,3.348,0,4.8,1.744,4.485,4.185H347.4c.192-1.246-.453-1.993-2.037-1.993-1.375,0-2.314.573-2.478,1.494-.444,2.491,7.5,1.52,6.663,6.228-.413,2.316-2.661,3.861-5.919,3.861C340.044,71.8,338.358,69.854,338.758,67.437Z" transform="translate(-249.764 -44.887)" fill="#828282"/>
    <path id="패스_10" data-name="패스 10" d="M358.72,66.79,359.394,63c.573-3.213,3.009-4.982,6.417-4.982,3.437,0,5.244,1.769,4.672,4.982l-.674,3.786c-.572,3.214-3.01,4.983-6.447,4.983C359.954,71.772,358.148,70,358.72,66.79Zm8.16,0L367.554,63c.328-1.843-.515-2.64-2.16-2.64A2.862,2.862,0,0,0,362.323,63l-.674,3.786c-.329,1.843.516,2.641,2.13,2.641A2.871,2.871,0,0,0,366.88,66.79Z" transform="translate(-258.013 -44.887)" fill="#828282"/>
    <path id="패스_11" data-name="패스 11" d="M385.417,54.135l-.128.722h3.049l-.391,2.192H384.9L382.95,67.985h-2.869l1.948-10.936h-2.3l.391-2.192h2.3l.129-.722c.483-2.715,2.451-4.534,6.1-4.534h.927l-.391,2.192h-.927A2.52,2.52,0,0,0,385.417,54.135Z" transform="translate(-266.758 -41.399)" fill="#828282"/>
    <path id="패스_12" data-name="패스 12" d="M401.3,67.383l-.4,2.266h-1.105c-3.139,0-4.694-1.669-4.211-4.384l1.193-6.7h-2.213l.391-2.192h2.213l.555-3.114h2.869l-.555,3.114h2.929l-.391,2.192h-2.929l-1.2,6.727c-.253,1.42.344,2.092,1.9,2.092Z" transform="translate(-272.902 -42.914)" fill="#828282"/>
  </g>
</svg>
