<svg xmlns="http://www.w3.org/2000/svg" width="13.969" height="13.969" viewBox="0 0 13.969 13.969">
  <path id="ic_phone" d="M190.461,69.048a.78.78,0,0,0-.795,0l-1.243.74a.778.778,0,0,1-.881-.053,17.135,17.135,0,0,1-3.31-3.31.778.778,0,0,1-.053-.881l.74-1.243a.783.783,0,0,0,0-.8L183.1,60.394a.786.786,0,0,0-.867-.366,2.576,2.576,0,0,0-1.207.725c-1.405,1.405-2.152,3.776,3.133,9.061s7.655,4.539,9.061,3.133a2.587,2.587,0,0,0,.726-1.209.782.782,0,0,0-.364-.864Z" transform="translate(-180 -60.005)"/>
</svg>
