<svg xmlns="http://www.w3.org/2000/svg" xmlns:xlink="http://www.w3.org/1999/xlink" width="159" height="44.621" viewBox="0 0 159 44.621">
  <defs>
    <linearGradient id="linear-gradient" x1="0.5" y1="0.997" x2="0.5" y2="-0.221" gradientUnits="objectBoundingBox">
      <stop offset="0" stop-color="#f6e200"/>
      <stop offset="1" stop-color="#8cae21"/>
    </linearGradient>
    <linearGradient id="linear-gradient-2" x1="0.972" y1="0.334" x2="-0.713" y2="0.927" gradientUnits="objectBoundingBox">
      <stop offset="0" stop-color="#59c1f0"/>
      <stop offset="1" stop-color="#0096d7"/>
    </linearGradient>
    <linearGradient id="linear-gradient-3" x1="0.03" y1="0.348" x2="1.378" y2="0.784" gradientUnits="objectBoundingBox">
      <stop offset="0" stop-color="#ffad2d"/>
      <stop offset="1" stop-color="#ee5014"/>
    </linearGradient>
  </defs>
  <g id="그룹_2" data-name="그룹 2" transform="translate(-186.875 -35.599)">
    <g id="그룹_1" data-name="그룹 1" transform="translate(186.875 35.599)">
      <path id="패스_1" data-name="패스 1" d="M206.3,36.178,187.373,47.066,206.3,58.092l18.923-11.026Z" transform="translate(-187.016 -35.763)" fill="url(#linear-gradient)"/>
      <path id="패스_2" data-name="패스 2" d="M187.376,51.382l0,21.9,18.927,11V62.408Z" transform="translate(-187.016 -40.079)" fill="url(#linear-gradient-2)"/>
      <path id="패스_3" data-name="패스 3" d="M232.6,51.208,213.675,62.235l-.071.124V84.233l.214.124,18.923-11,.073-.124v-21.9Z" transform="translate(-194.463 -40.03)" fill="url(#linear-gradient-3)"/>
      <path id="패스_4" data-name="패스 4" d="M225.439,46.692,206.156,35.6,186.878,46.692l0,0v0h0V69.01l19.284,11.209v0h0v0L225.444,69.01l0-22.321Zm-19.8,32.2L187.76,68.5V47.807l17.876,10.418ZM188.279,46.9l17.876-10.285L224.037,46.9,206.159,57.317Zm36.28,21.6L206.683,78.89V58.225L224.559,47.81Z" transform="translate(-186.875 -35.599)" fill="#1a1818"/>
    </g>
    <path id="패스_5" data-name="패스 5" d="M268.438,65.617a8.2,8.2,0,0,1-3.058,5.268l1.683,2.041-2.516,1.614-1.864-2.254a10.655,10.655,0,0,1-3.375.488c-4.9,0-7.337-2.71-6.546-7.156l1.389-7.8c.792-4.446,4.2-7.157,9.095-7.157,4.933,0,7.374,2.711,6.581,7.157Zm-5.1,2.8a5.511,5.511,0,0,0,1.266-2.8l1.389-7.8c.478-2.68-.614-4.142-3.281-4.142-2.631,0-4.244,1.462-4.721,4.142l-1.389,7.8c-.478,2.68.614,4.141,3.245,4.141a5.923,5.923,0,0,0,.735-.031l-1.413-1.705,2.484-1.645Z" transform="translate(-18.662 -4.277)" fill="#333"/>
    <path id="패스_6" data-name="패스 6" d="M292.02,58.574l-2.859,16.049h-2.521l-.046-1.8a6.73,6.73,0,0,1-5.178,2.192c-3.324,0-5.055-1.98-4.274-6.365l1.8-10.08h3.544L280.715,68.5c-.467,2.619.178,3.715,2.042,3.715,2.009,0,3.527-1.341,3.949-3.715l1.769-9.928Z" transform="translate(-25.573 -6.522)" fill="#333"/>
    <path id="패스_7" data-name="패스 7" d="M312.5,61.951l-.787,4.416a7.138,7.138,0,0,1-7.251,6.244,5.15,5.15,0,0,1-4.023-1.828l-.516,1.462h-2.558L301.294,50.2h3.471l-1.226,6.883a6.866,6.866,0,0,1,3.919-1.279C311.184,55.8,313.19,58.083,312.5,61.951Zm-3.619,0c.412-2.314-.462-3.349-2.509-3.349a3.694,3.694,0,0,0-3.7,3.349l-.792,4.446c-.412,2.315.671,3.411,2.5,3.411,1.972,0,3.295-1.066,3.718-3.442Z" transform="translate(-31.366 -4.144)" fill="#333"/>
    <path id="패스_8" data-name="패스 8" d="M332.725,69.442c-.973,3.41-3.769,5.359-7.862,5.359-4.018,0-6.15-2.193-5.466-6.03l.851-4.782c.678-3.806,3.621-5.969,7.678-5.969,4.166,0,6.375,2.163,5.7,5.969l-.634,3.563h-9.83l-.217,1.218c-.39,2.193.564,3.2,2.5,3.2a3.374,3.374,0,0,0,3.7-2.527ZM323.8,63.96l-.244,1.37h6.322l.244-1.37c.391-2.193-.605-3.167-2.651-3.167A3.432,3.432,0,0,0,323.8,63.96Z" transform="translate(-37.585 -6.365)" fill="#333"/>
    <path id="패스_9" data-name="패스 9" d="M338.771,69.533h3.508c-.223,1.462.635,2.589,2.865,2.589,1.863,0,3.059-.761,3.281-2.01.576-3.228-9.085-2.131-8.108-7.613.488-2.741,3.246-4.477,7.01-4.477,4.093,0,5.868,2.132,5.483,5.117h-3.471c.235-1.523-.554-2.436-2.49-2.436-1.682,0-2.829.7-3.03,1.827-.543,3.046,9.17,1.858,8.145,7.614-.5,2.832-3.253,4.72-7.236,4.72C340.343,74.862,338.282,72.487,338.771,69.533Z" transform="translate(-43.1 -6.365)" fill="#333"/>
    <path id="패스_10" data-name="패스 10" d="M358.743,68.741l.824-4.629c.7-3.928,3.679-6.091,7.845-6.091,4.2,0,6.411,2.163,5.711,6.091l-.824,4.629c-.7,3.929-3.679,6.091-7.881,6.091C360.251,74.832,358.044,72.67,358.743,68.741Zm9.976,0,.824-4.629c.4-2.254-.63-3.228-2.64-3.228a3.5,3.5,0,0,0-3.755,3.228l-.824,4.629c-.4,2.254.631,3.228,2.6,3.228A3.51,3.51,0,0,0,368.719,68.741Z" transform="translate(-48.754 -6.365)" fill="#333"/>
    <path id="패스_11" data-name="패스 11" d="M386.683,55.144l-.157.883h3.727l-.478,2.68h-3.727l-2.382,13.369H380.16l2.381-13.369h-2.814l.478-2.68h2.814l.158-.883c.591-3.319,3-5.543,7.455-5.543h1.133l-.478,2.68h-1.133A3.08,3.08,0,0,0,386.683,55.144Z" transform="translate(-54.747 -3.975)" fill="#333"/>
    <path id="패스_12" data-name="패스 12" d="M402.8,70.526l-.493,2.771h-1.351c-3.838,0-5.739-2.04-5.147-5.359l1.459-8.192h-2.706l.478-2.68h2.705l.678-3.807h3.508l-.678,3.807h3.581l-.478,2.68h-3.581l-1.464,8.223c-.309,1.736.421,2.558,2.321,2.558Z" transform="translate(-58.958 -5.013)" fill="#333"/>
  </g>
</svg>
